<svg width="173" height="36" viewBox="0 0 173 36" fill="none" xmlns="http://www.w3.org/2000/svg">
    <path d="M49.176 29.0021C48.0761 29.0021 47.1176 28.8751 46.3064 28.6239C45.4923 28.3727 44.8311 28.0263 44.3173 27.5846C43.8034 27.1429 43.3906 26.58 43.0759 25.8929C42.7612 25.2058 42.5447 24.4783 42.4235 23.7075C42.3022 22.9367 42.2416 22.0475 42.2416 21.0399V19.9718H45.6222V21.2305C45.6222 22.8558 45.8907 24.0568 46.4334 24.8334C46.9732 25.61 47.9837 25.9968 49.4618 25.9968C50.6685 25.9968 51.575 25.61 52.1842 24.8334C52.7933 24.0568 53.0964 23.0204 53.0964 21.7184V6.99792H56.4943V21.2651C56.4943 22.4401 56.3702 23.4765 56.1248 24.3801C55.8794 25.2808 55.481 26.0892 54.9383 26.8023C54.3927 27.5153 53.6363 28.061 52.6663 28.4391C51.6963 28.8173 50.5357 29.005 49.1818 29.005L49.176 29.0021Z" fill="white"/>
    <path d="M63.9946 29.0021C62.4096 29.0021 61.1394 28.5604 60.1809 27.6741C59.2225 26.7878 58.7404 25.6157 58.7404 24.1578C58.7404 22.5209 59.3524 21.2103 60.5822 20.2258C61.8092 19.2414 63.5558 18.7477 65.8191 18.7477H70.1149V18.433C70.1149 17.1541 69.7973 16.2245 69.1622 15.65C68.527 15.0727 67.5859 14.784 66.3388 14.784C65.3226 14.784 64.5344 14.9658 63.9801 15.3267C63.423 15.6876 63.0101 16.2303 62.7388 16.9549H59.6411C59.924 15.4249 60.6457 14.2239 61.8034 13.352C62.961 12.4831 64.5171 12.0471 66.4658 12.0471C68.6887 12.0471 70.3574 12.613 71.4688 13.7447C72.5803 14.8763 73.1375 16.5334 73.1375 18.716V28.5777H70.1177V26.3288C69.5086 27.1573 68.6714 27.8098 67.6003 28.2861C66.5322 28.7625 65.3312 29.0021 63.9975 29.0021H63.9946ZM62.0286 23.8431C62.0286 24.5764 62.2999 25.1509 62.8456 25.5666C63.3912 25.9824 64.1447 26.1873 65.1118 26.1873C66.5177 26.1873 67.6667 25.7572 68.5646 24.8969C69.4624 24.0366 69.9763 22.8154 70.1149 21.2334H66.5755C63.5442 21.2334 62.0286 22.1052 62.0286 23.8431Z" fill="white"/>
    <path d="M76.6105 28.5777V12.4715H79.789V14.501C80.2913 13.736 80.9698 13.1355 81.8185 12.6996C82.6673 12.2637 83.6286 12.0471 84.6968 12.0471C85.9237 12.0471 86.9775 12.3503 87.858 12.9594C88.7385 13.5686 89.3794 14.3913 89.7778 15.4277C90.3552 14.3884 91.1953 13.5657 92.301 12.9594C93.4067 12.3503 94.6538 12.0471 96.0367 12.0471C97.8727 12.0471 99.3018 12.5957 100.324 13.6898C101.346 14.784 101.857 16.3775 101.857 18.4648V28.5777H98.6782V19.0768C98.6782 16.2678 97.4512 14.8619 94.9974 14.8619C93.6665 14.8619 92.6359 15.3007 91.9055 16.1755C91.1751 17.0502 90.8113 18.2858 90.8113 19.8794V28.5777H87.6184V18.716C87.6184 17.4775 87.3037 16.5277 86.6743 15.8608C86.045 15.1939 85.1385 14.8619 83.952 14.8619C82.598 14.8619 81.5674 15.2949 80.8543 16.161C80.1412 17.0271 79.7832 18.2656 79.7832 19.8823V28.5806H76.6047L76.6105 28.5777Z" fill="white"/>
    <path d="M105.676 28.5777V6.99792H114.611C116.623 6.99792 118.226 7.54067 119.415 8.62615C120.604 9.71164 121.199 11.1464 121.199 12.9277C121.199 13.9756 120.899 14.8937 120.301 15.6789C119.704 16.4642 118.875 17.0473 117.816 17.4255C119.23 17.7835 120.359 18.4273 121.196 19.3598C122.036 20.2922 122.455 21.3777 122.455 22.6162C122.455 24.3974 121.834 25.838 120.59 26.9351C119.349 28.0321 117.715 28.5777 115.691 28.5777H105.67H105.676ZM109.057 16.2448H113.855C116.433 16.2448 117.723 15.2026 117.723 13.1153C117.723 11.0281 116.433 9.9859 113.855 9.9859H109.057V16.2448ZM109.057 25.5869H114.767C117.576 25.5869 118.982 24.5129 118.982 22.3622C118.982 20.2114 117.567 19.0104 114.735 19.0104H109.057V25.584V25.5869Z" fill="white"/>
    <path d="M129.225 29.0021C127.64 29.0021 126.37 28.5604 125.411 27.6741C124.453 26.7878 123.973 25.6157 123.973 24.1578C123.973 22.5209 124.585 21.2103 125.812 20.2258C127.039 19.2414 128.786 18.7477 131.049 18.7477H135.342V18.433C135.342 17.1541 135.025 16.2245 134.389 15.65C133.754 15.0727 132.813 14.784 131.566 14.784C130.55 14.784 129.762 14.9658 129.207 15.3267C128.65 15.6876 128.237 16.2303 127.966 16.9549H124.868C125.151 15.4249 125.873 14.2239 127.031 13.352C128.188 12.4831 129.744 12.0471 131.693 12.0471C133.916 12.0471 135.585 12.613 136.696 13.7447C137.808 14.8763 138.365 16.5334 138.365 18.716V28.5777H135.345V26.3288C134.736 27.1573 133.899 27.8098 132.828 28.2861C131.757 28.7625 130.558 29.0021 129.225 29.0021ZM127.259 23.8431C127.259 24.5764 127.53 25.1509 128.076 25.5666C128.621 25.9795 129.375 26.1873 130.342 26.1873C131.748 26.1873 132.897 25.7572 133.795 24.8969C134.693 24.0366 135.206 22.8154 135.345 21.2334H131.806C128.774 21.2334 127.259 22.1052 127.259 23.8431Z" fill="white"/>
    <path d="M141.067 28.5777V24.331L150.914 15.9474V15.2718H141.099V12.4715H154.532V16.3718L144.702 24.6139V25.7774H155.005V28.5777H141.07H141.067Z" fill="white"/>
    <path d="M164.535 29.0021C162.049 29.0021 160.08 28.263 158.628 26.7849C157.176 25.3068 156.448 23.2196 156.448 20.5261C156.448 17.9769 157.173 15.9272 158.628 14.3769C160.08 12.8237 162.006 12.05 164.408 12.05C166.81 12.05 168.686 12.766 170.072 14.1979C171.455 15.6298 172.148 17.6074 172.148 20.1363C172.148 20.5347 172.104 20.9216 172.021 21.2998H159.514C159.61 22.9973 160.106 24.2531 161.01 25.0585C161.911 25.8669 163.132 26.2711 164.673 26.2711C165.658 26.2711 166.509 26.043 167.223 25.5869C167.936 25.1307 168.429 24.4898 168.701 23.6613H171.879C171.492 25.2866 170.629 26.5828 169.292 27.5529C167.956 28.5229 166.368 29.0079 164.535 29.0079V29.0021ZM159.581 18.8083H168.955C168.828 17.4659 168.366 16.4584 167.563 15.7886C166.761 15.1189 165.69 14.7811 164.347 14.7811C163.005 14.7811 161.965 15.1304 161.14 15.8262C160.311 16.5248 159.792 17.5179 159.584 18.8083H159.581Z" fill="white"/>
    <path d="M18 0C8.0603 0 0 8.0603 0 18C0 27.9426 8.0603 36 18 36C27.9426 36 36 27.9397 36 18C36 8.0603 27.9426 0 18 0ZM30.7314 18.4966C28.1014 20.0959 28.6297 24.3022 27.6192 26.7994C27.2642 27.677 26.6377 28.4218 25.6273 28.0119C24.1723 27.4172 24.1578 26.0805 23.8691 24.7439C23.5314 23.1618 23.1041 21.5971 22.5902 20.0613C22.4314 19.5849 22.2582 19.0999 21.932 18.7188C21.6058 18.3378 21.089 18.0779 20.5982 18.1934C20.067 18.3176 19.7235 18.8257 19.4983 19.3222C18.7448 20.9678 18.8545 28.953 15.7915 28.0148C14.9687 27.7636 14.4144 26.9899 14.0767 26.1989C13.1298 23.9846 13.3261 21.2132 11.6574 19.4781C10.8462 18.6322 9.69431 18.179 8.53376 18.0058C6.96038 17.769 5.35525 17.9885 3.76744 18.0144C4.31885 17.9278 4.82983 17.769 5.26287 17.5063C7.89286 15.907 7.36744 11.7036 8.37498 9.20353C8.73007 8.3259 9.35654 7.58107 10.367 7.99102C11.822 8.58573 11.8364 9.92237 12.1251 11.259C12.4629 12.8411 12.893 14.4058 13.404 15.9445C13.5628 16.4209 13.736 16.9059 14.0622 17.2869C14.3885 17.668 14.9052 17.9278 15.396 17.8123C15.9272 17.6882 16.2707 17.1801 16.4959 16.6836C17.2494 15.038 17.1397 7.05277 20.2027 7.99102C21.0255 8.24218 21.5798 9.01588 21.9176 9.8069C22.8645 12.0212 22.6682 14.7926 24.3368 16.5277C25.148 17.3706 26.2999 17.8268 27.4605 18C29.0338 18.2367 30.6419 18.0173 32.2268 17.9913C31.6754 18.0808 31.1644 18.2367 30.7314 18.5023V18.4966Z" fill="white"/>
</svg>
