<?xml version="1.0" encoding="UTF-8"?>
<!DOCTYPE svg PUBLIC "-//W3C//DTD SVG 1.1//EN" "http://www.w3.org/Graphics/SVG/1.1/DTD/svg11.dtd">
<svg xmlns="http://www.w3.org/2000/svg" version="1.1" width="187px" height="61px" style="shape-rendering:geometricPrecision; text-rendering:geometricPrecision; image-rendering:optimizeQuality; fill-rule:evenodd; clip-rule:evenodd" xmlns:xlink="http://www.w3.org/1999/xlink">
<g><path style="opacity:0.709" fill="#ec1f24" d="M 122.5,-0.5 C 123.167,-0.5 123.833,-0.5 124.5,-0.5C 125.021,11.1215 127.021,22.6215 130.5,34C 131.751,36.3595 133.084,38.5262 134.5,40.5C 135.415,42.7541 136.748,44.7541 138.5,46.5C 135.813,46.6641 133.146,46.4974 130.5,46C 128.939,39.7198 125.273,38.0532 119.5,41C 118.74,42.4411 118.074,43.9411 117.5,45.5C 114.691,46.8003 112.024,46.8003 109.5,45.5C 112.768,42.905 114.768,39.5717 115.5,35.5C 117.603,33.861 118.269,31.861 117.5,29.5C 119.477,26.1408 120.644,22.4741 121,18.5C 121.727,12.2341 122.227,5.90079 122.5,-0.5 Z M 123.5,21.5 C 124.216,23.5563 124.883,25.723 125.5,28C 124.365,28.7494 123.365,28.5827 122.5,27.5C 123.348,25.5914 123.682,23.5914 123.5,21.5 Z M 121.5,32.5 C 123.716,32.2746 125.383,33.1079 126.5,35C 124.866,35.4935 123.199,35.6602 121.5,35.5C 121.5,34.5 121.5,33.5 121.5,32.5 Z"/></g>
<g><path style="opacity:0.846" fill="#f20d0d" d="M 34.5,60.5 C 30.1667,60.5 25.8333,60.5 21.5,60.5C 10.5,56.8333 3.16667,49.5 -0.5,38.5C -0.5,33.8333 -0.5,29.1667 -0.5,24.5C 6.92424,5.9548 20.2576,-0.545197 39.5,5C 53.591,12.2271 59.091,23.7271 56,39.5C 52.2236,50.1113 45.0569,57.1113 34.5,60.5 Z M 23.5,39.5 C 22.508,32.0182 22.1746,24.3516 22.5,16.5C 19.1667,16.5 15.8333,16.5 12.5,16.5C 15.4,13.2145 19.0666,11.2145 23.5,10.5C 23.5,20.1667 23.5,29.8333 23.5,39.5 Z M 43.5,16.5 C 40.1667,16.5 36.8333,16.5 33.5,16.5C 33.7394,14.5328 33.4061,12.6995 32.5,11C 36.9488,11.2244 40.6154,13.0577 43.5,16.5 Z M 11.5,17.5 C 11.1614,26.2259 11.6614,34.8926 13,43.5C 19.2563,52.4404 27.423,54.6071 37.5,50C 40.3807,48.7494 42.214,46.5827 43,43.5C 44.3759,34.9021 44.8759,26.2354 44.5,17.5C 52.7418,29.2652 51.4085,40.0986 40.5,50C 26.6276,56.9292 15.7943,53.7625 8,40.5C 5.25483,32.1359 6.4215,24.4692 11.5,17.5 Z M 32.5,39.5 C 32.5,40.8333 31.8333,41.5 30.5,41.5C 30.8333,40.5 31.5,39.8333 32.5,39.5 Z"/></g>
<g><path style="opacity:0.835" fill="#f20c0c" d="M 186.5,10.5 C 186.5,20.1667 186.5,29.8333 186.5,39.5C 182.915,45.4261 177.915,46.9261 171.5,44C 170.299,43.0975 169.465,41.9308 169,40.5C 168.506,42.1341 168.34,43.8008 168.5,45.5C 165.833,45.5 163.167,45.5 160.5,45.5C 160.666,41.1539 160.499,36.8206 160,32.5C 158.887,33.305 157.721,33.9717 156.5,34.5C 156.167,34.5 155.833,34.5 155.5,34.5C 154.84,33.036 154.507,31.3693 154.5,29.5C 154.556,27.3603 155.223,25.6936 156.5,24.5C 157.583,24.5394 158.583,24.8728 159.5,25.5C 160.487,22.2317 160.82,18.8984 160.5,15.5C 159.5,15.5 158.5,15.5 157.5,15.5C 156.833,7.5 160.5,3.83333 168.5,4.5C 167.813,10.5988 169.146,11.0988 172.5,6C 178.377,3.77335 183.044,5.27335 186.5,10.5 Z M 176.5,12.5 C 178.468,20.4329 179.135,28.7663 178.5,37.5C 177.5,37.5 176.5,37.5 175.5,37.5C 175.198,29.0817 175.531,20.7483 176.5,12.5 Z"/></g>
<g><path style="opacity:0.834" fill="#000000" d="M 115.5,35.5 C 114.768,39.5717 112.768,42.905 109.5,45.5C 103.217,46.5844 96.8837,46.7511 90.5,46C 89.6998,41.92 89.1998,37.7533 89,33.5C 88.586,33.0426 88.086,32.7093 87.5,32.5C 86.5067,37.1196 86.1734,41.7863 86.5,46.5C 83.8333,46.5 81.1667,46.5 78.5,46.5C 79.1869,40.4012 77.8535,39.9012 74.5,45C 68.5402,47.8682 64.0402,46.3682 61,40.5C 60.5001,28.8381 60.3335,17.1714 60.5,5.5C 63.1667,5.5 65.8333,5.5 68.5,5.5C 68.1679,16.5202 68.5012,27.5202 69.5,38.5C 70.086,38.2907 70.586,37.9574 71,37.5C 71.4998,26.8385 71.6665,16.1719 71.5,5.5C 77.8421,5.33379 84.1754,5.50046 90.5,6C 93,7.16667 94.8333,9 96,11.5C 96.4955,9.5273 96.6621,7.5273 96.5,5.5C 112.609,3.60559 117.942,10.2723 112.5,25.5C 114.668,28.4979 115.668,31.8313 115.5,35.5 Z M 86.5,13.5 C 87.4959,13.4142 88.3292,13.7476 89,14.5C 89.6667,17.5 89.6667,20.5 89,23.5C 88.586,23.9574 88.086,24.2907 87.5,24.5C 86.5108,20.8927 86.1774,17.226 86.5,13.5 Z M 104.5,13.5 C 106.89,13.6848 107.89,15.0182 107.5,17.5C 107.693,19.6878 106.859,21.3545 105,22.5C 104.502,19.5184 104.335,16.5184 104.5,13.5 Z M 95.5,26.5 C 96.5983,27.6009 96.765,28.9343 96,30.5C 94.6658,29.1221 94.4991,27.7887 95.5,26.5 Z M 104.5,29.5 C 106.453,30.2439 107.453,31.7439 107.5,34C 107.691,35.9729 107.024,37.4729 105.5,38.5C 104.516,35.5719 104.183,32.5719 104.5,29.5 Z"/></g>
<g><path style="opacity:0.854" fill="#000000" d="M 156.5,23.5 C 155.5,23.5 154.5,23.5 153.5,23.5C 153.176,27.5546 153.509,31.5546 154.5,35.5C 155.107,35.3764 155.44,35.0431 155.5,34.5C 155.833,34.5 156.167,34.5 156.5,34.5C 156.5,38.5 156.5,42.5 156.5,46.5C 153.167,46.5 149.833,46.5 146.5,46.5C 145.004,39.8474 143.504,33.1807 142,26.5C 141.5,33.1583 141.334,39.825 141.5,46.5C 140.5,46.5 139.5,46.5 138.5,46.5C 136.748,44.7541 135.415,42.7541 134.5,40.5C 134.5,28.8333 134.5,17.1667 134.5,5.5C 137.833,5.5 141.167,5.5 144.5,5.5C 145.678,12.8819 147.178,20.2152 149,27.5C 148.753,20.1964 148.586,12.8631 148.5,5.5C 151.167,5.5 153.833,5.5 156.5,5.5C 156.5,11.5 156.5,17.5 156.5,23.5 Z"/></g>
<g><path style="opacity:0.839" fill="#000000" d="M 12.5,16.5 C 15.8333,16.5 19.1667,16.5 22.5,16.5C 22.1746,24.3516 22.508,32.0182 23.5,39.5C 23.5,40.1667 23.8333,40.5 24.5,40.5C 24.5,41.1667 24.8333,41.5 25.5,41.5C 27.1667,42.8333 28.8333,42.8333 30.5,41.5C 31.8333,41.5 32.5,40.8333 32.5,39.5C 33.492,32.0182 33.8254,24.3516 33.5,16.5C 36.8333,16.5 40.1667,16.5 43.5,16.5C 43.5,17.1667 43.8333,17.5 44.5,17.5C 44.8759,26.2354 44.3759,34.9021 43,43.5C 42.214,46.5827 40.3807,48.7494 37.5,50C 27.423,54.6071 19.2563,52.4404 13,43.5C 11.6614,34.8926 11.1614,26.2259 11.5,17.5C 12.1667,17.5 12.5,17.1667 12.5,16.5 Z M 32.5,39.5 C 32.5,40.8333 31.8333,41.5 30.5,41.5C 30.8333,40.5 31.5,39.8333 32.5,39.5 Z"/></g>
<g><path style="opacity:0.388" fill="#850808" d="M 156.5,23.5 C 156.5,23.8333 156.5,24.1667 156.5,24.5C 155.223,25.6936 154.556,27.3603 154.5,29.5C 154.507,31.3693 154.84,33.036 155.5,34.5C 155.44,35.0431 155.107,35.3764 154.5,35.5C 153.509,31.5546 153.176,27.5546 153.5,23.5C 154.5,23.5 155.5,23.5 156.5,23.5 Z"/></g>
<g><path style="opacity:0.619" fill="#000000" d="M 60.5,47.5 C 63.8078,46.9738 65.9745,48.3072 67,51.5C 67.8686,48.6059 69.7019,47.4392 72.5,48C 73.4601,51.73 73.7935,55.5633 73.5,59.5C 71.8333,59.5 70.1667,59.5 68.5,59.5C 68.8808,57.0582 68.2141,56.3915 66.5,57.5C 65.8076,56.9747 65.3076,56.3081 65,55.5C 64.51,56.7932 64.3433,58.1266 64.5,59.5C 63.1667,59.5 61.8333,59.5 60.5,59.5C 60.5,55.5 60.5,51.5 60.5,47.5 Z"/></g>
<g><path style="opacity:0.647" fill="#000000" d="M 92.5,47.5 C 95.5,47.5 98.5,47.5 101.5,47.5C 101.5,48.8333 101.5,50.1667 101.5,51.5C 94.8333,51.8333 94.8333,52.1667 101.5,52.5C 101.5,54.8333 101.5,57.1667 101.5,59.5C 98.5,59.5 95.5,59.5 92.5,59.5C 92.5,55.5 92.5,51.5 92.5,47.5 Z"/></g>
<g><path style="opacity:0.669" fill="#000000" d="M 120.5,47.5 C 123.607,47.3512 126.607,47.8512 129.5,49C 132.343,52.6187 132.01,55.952 128.5,59C 125.854,59.4974 123.187,59.6641 120.5,59.5C 120.5,55.5 120.5,51.5 120.5,47.5 Z M 124.5,51.5 C 126.912,51.6941 127.912,53.0274 127.5,55.5C 126.5,55.5 125.5,55.5 124.5,55.5C 124.5,54.1667 124.5,52.8333 124.5,51.5 Z"/></g>
<g><path style="opacity:0.623" fill="#000000" d="M 150.5,47.5 C 151.833,47.5 153.167,47.5 154.5,47.5C 154.5,51.5 154.5,55.5 154.5,59.5C 153.167,59.5 151.833,59.5 150.5,59.5C 150.5,55.5 150.5,51.5 150.5,47.5 Z"/></g>
<g><path style="opacity:0.688" fill="#000000" d="M 177.5,47.5 C 178.978,47.238 180.311,47.5713 181.5,48.5C 182.833,51.8333 184.167,55.1667 185.5,58.5C 184.833,58.8333 184.167,59.1667 183.5,59.5C 182.167,58.8333 180.833,58.1667 179.5,57.5C 177.666,58.7545 175.666,59.4211 173.5,59.5C 174.267,55.3017 175.601,51.3017 177.5,47.5 Z"/></g>
</svg>
